**ABCDEFGHIJKLMNOPQRSTUVWXYZabcdefghijklmnopqrstuvwxyz**************************
**PARASOLID !"#$%&'()*+,-./:;<=>?@[\]^_`{|}~0123456789**************************
**PART1;
MC=unknown;
MC_MODEL=unknown;
MC_ID=unknown;
OS=unknown;
OS_RELEASE=unknown;
FRU=sdl_parasolid_customer_support;
APPL=parasolid_acceptance_tests;
SITE=unknown;
USER=unknown;
FORMAT=text;
GUISE=transmit;
KEY=/Users/parkerda/SimVascular/users/Brennen-Carr/sv-annulus/Models/annulus;
FILE=/Users/parkerda/SimVascular/users/Brennen-Carr/sv-annulus/Models/annulus.xmt_txt;
DATE=unknown;
**PART2;
SCH=SCH_3000167_30000;
USFLD_SIZE=1;
**PART3;
**END_OF_HEADER*****************************************************************
T51 : TRANSMIT FILE created by modeller version 300016723 SCH_3000167_30000_1300
6205 1 12 33 CCCCCCI4 mesh1006 0 I8 polyline1008 0 CCCCCCCDI5 owner1040 0 CCCCCC
I13 boundary_mesh1006 0 I17 boundary_polyline1008 0 CCCA16 index_map_offset0 0 1
 dA9 index_map82 0 A17 node_id_index_map82 0 A20 schema_embedding_map82 0 A5 chi
ld12 0 A14 lowest_node_id0 0 1 dZ1 96 2 3 0 0 0 0 0 0 1e3 1e-8 0 0 0 1 0 1 1 4 5
 6 0 0 0 7 8 0 0 0 0 0 0 0 0 81 255 1 2 80 9 1 10 0 0 0 11 0 70 11 CI9 list_type
0 0 1 uI10 notransmit0 0 1 lCCCDCCDI12 finger_index0 0 1 dI12 finger_block1012 0
 CZ3 0 4 T1 0 0 6 20 1 12 12 0 13 255 4 62 0 1 0 13 0 0 14 0 0 51 255 5 61 0 13
 15 0 0 -0 612323399573677e-31 32 0 0 -1 1 -1 0 0 0 31 255 6 50 0 16 17 0 0 +0 9
48488945939625e-31 0 0 0 1 1 0 0 1.549 0 19 8 CCCCCCCA5 owner12 0 Z7 19 0 1 14 0
 18 V0 0 16 255 8 13 19 ?20 0 21 22 0 0 1 0 81 1 19 70 23 8 0 0 24 25 26 0 17 25
5 20 0 27 20 20 0 28 8 0 0 +0 16 21 8 29 ?30 8 16 31 0 0 1 0 31 22 15 0 8 31 17
 0 +0 948488945939625e-31 32 0 0 1 1 0 0 1.549 0 31 31 10 0 21 0 22 0 +0 6123233
99573677e-31 32 0 0 1 1 0 0 1 0 31 17 51 0 32 22 6 0 +0 612323399573677e-31 0 0
 0 1 1 0 0 1 0 16 32 45 25 ?33 16 0 17 0 0 1 0 81 1 25 71 23 32 0 0 19 29 34 0 1
7 33 0 35 33 33 0 36 32 0 0 +0 16 16 41 24 ?37 21 32 6 0 0 1 0 81 1 24 69 23 16
 0 0 0 19 38 0 17 37 0 39 37 37 0 40 16 0 0 +0 15 255 39 54 0 37 41 0 0 17 40 0
 42 40 40 0 37 16 0 0 -0 15 42 40 0 40 43 0 0 14 255 43 34 44 ?0 45 35 4 46 -0 0
 0 45 18 0 81 1 44 96 47 43 48 0 49 0 50 0 14 45 1 49 ?43 41 51 4 52 +0 0 43 41
 18 0 15 35 39 0 33 43 42 0 50 255 46 49 0 43 52 15 0 +0 0 0 0 0 1 1 0 0 0 13 18
 20 0 0 0 0 0 0 7 13 0 14 13 57 53 ?41 0 54 4 5 +0 0 41 0 18 0 81 1 53 93 47 13
 55 0 0 56 57 0 14 41 53 56 ?45 13 58 4 15 -0 0 45 13 18 0 15 54 56 0 30 13 59 0
 17 30 0 54 30 30 0 60 21 0 0 +0 15 59 58 0 36 13 0 0 17 36 0 59 36 36 0 33 32 0
 0 -0 17 60 0 51 60 60 0 30 21 0 0 -0 15 51 6 0 60 45 27 0 15 27 7 0 20 45 0 0 8
1 1 56 94 47 41 61 0 53 49 62 0 15 58 52 0 28 41 39 0 51 15 60 0 41 46 5 0 -0 94
8488945939625e-31 32 0 0 -1 1.549 -1 0 0 0 17 28 0 58 28 28 0 20 8 0 0 -0 80 255
 1 47 63 64 9000 0 0 0 0 3 5 0 0 0 FFFFTFFFFFFFFF3 0 81 1 61 82 65 41 66 56 55 6
7 68 0 81 1 49 95 47 45 67 0 56 44 69 0 84 255 10 62 outer-wall0 81 1 67 83 65 4
5 70 49 61 48 71 0 84 5 69 inlet0 80 1 65 0 72 8001 0 0 0 0 3 5 0 0 0 FFFFTFTFFF
FFFF2 0 81 1 70 75 23 45 0 67 73 74 75 0 81 1 48 84 65 43 73 44 67 0 76 0 83 255
 3 71 .615686274509804 .811764705882353 .929411764705882 0 81 1 73 74 23 43 0 48
 66 70 77 0 83 3 76 .615686274509804 .811764705882353 .929411764705882 0 80 1 23
 47 78 9000 0 0 0 0 3 6 0 0 0 FFTFTFTTFFFFFF1 0 81 1 66 73 23 41 0 61 29 73 79 0
 82 255 3 77 6 1 2 0 81 1 29 72 23 21 0 0 25 66 80 0 82 3 79 6 0 2 0 82 3 80 6 3
 1 0 79 255 9 78 BTI/DetId0 81 1 74 76 23 13 0 55 70 81 82 0 82 3 75 6 2 2 0 81
 1 55 81 65 13 74 53 0 61 83 0 81 1 81 77 23 1 0 84 74 0 85 0 82 3 82 6 3 2 0 81
 1 84 78 86 1 81 10 0 0 87 0 82 3 85 6 0 3 0 80 1 86 88 89 8038 0 0 0 0 0 0 0 0
 0 TTTTTTTTTTTTTF10 0 81 1 10 79 88 1 84 2 0 0 90 0 98 255 6 87 80 97 114 116 32
 49 0 80 1 88 91 92 8017 0 0 0 0 0 0 0 0 0 TTTTTTTTTTTTTF3 0 84 6 90 Part 10 79
 13 92 SDL/TYSA_NAME0 79 14 89 SDL/TYSA_UNAME0 83 3 83 .615686274509804 .8117647
05882353 .929411764705882 0 79 15 72 SDL/TYSA_COLOUR0 83 3 68 .615686274509804 .
811764705882353 .929411764705882 0 79 8 64 gdscName0 84 10 57 inner-wall0 50 52
 3 0 45 0 46 0 +0 0 32 0 0 1 1 0 0 0 84 6 50 outlet0 82 3 38 6 0 1 0 82 3 34 6 2
 1 0 82 3 26 6 1 1 0 19 14 63 0 1 0 7 4 S0 0 74 4 CI16 index_map_offset0 0 1 dCC
Z20 12 6 0 0 81 84 10 2 48 44 0 0 0 0 0 0 0 0 0 0 0 0 0 0 0 80 1 9 65 93 8040 0
 0 0 0 3 5 0 0 0 TTTFFFFFFFFFFF2 0 83 3 11 .615686274509804 .811764705882353 .92
9411764705882 0 79 17 93 SDL/TYSA_COLOUR_20 1 0 
