DBRep_DrawableShape

CASCADE Topology V1, (c) Matra-Datavision
Locations 0
Curve2ds 6
1 0 10 1 0 
2 0 0 1 0 -0 1 1.5
1 6.2831853071795862 -0 0 1 
1 0 -0 0 1 
1 0 0 1 0 
2 0 0 1 0 -0 1 1.5
Curves 3
2 0 0 5 0 0 1 1 0 -0 -0 1 0 1.5
1 1.5 -3.6739403974420594e-16 -5 0 0 1 
2 0 0 -5 0 0 1 1 0 -0 -0 1 0 1.5
Polygon3D 0
PolygonOnTriangulations 6
62 1 3 4 5 6 7 8 9 10 11 12 13 14 15 16 17 18 19 20 21 22 23 24 25 26 27 28 29 30 31 32 33 34 35 36 37 38 39 40 41 42 43 44 45 46 47 48 49 50 51 52 53 54 55 56 57 58 59 60 61 62 2 
p 0.00400000008 1 0 0.103003037822616 0.206006075645232 0.309009113467848 0.412012151290465 0.515015189113081 0.618018226935697 0.721021264758313 0.824024302580929 0.927027340403545 1.03003037822616 1.13303341604878 1.23603645387139 1.33903949169401 1.44204252951663 1.54504556733924 1.64804860516186 1.75105164298447 1.85405468080709 1.95705771862971 2.06006075645232 2.16306379427494 2.26606683209756 2.36906986992017 2.47207290774279 2.5750759455654 2.67807898338802 2.78108202121064 2.88408505903325 2.98708809685587 3.09009113467849 3.1930941725011 3.29609721032372 3.39910024814633 3.50210328596895 3.60510632379157 3.70810936161418 3.8111123994368 3.91411543725942 4.01711847508203 4.12012151290465 4.22312455072727 4.32612758854988 4.4291306263725 4.53213366419511 4.63513670201773 4.73813973984035 4.84114277766296 4.94414581548558 5.0471488533082 5.15015189113081 5.25315492895343 5.35615796677604 5.45916100459866 5.56216404242128 5.66516708024389 5.76817011806651 5.87117315588913 5.97417619371174 6.07717923153436 6.18018226935698 6.28318530717959 
62 1 2 3 4 5 6 7 8 9 10 11 12 13 14 15 16 17 18 19 20 21 22 23 24 25 26 27 28 29 30 31 32 33 34 35 36 37 38 39 40 41 42 43 44 45 46 47 48 49 50 51 52 53 54 55 56 57 58 59 60 61 1 
p 0.00400000008 1 0 0.103003037822616 0.206006075645232 0.309009113467848 0.412012151290465 0.515015189113081 0.618018226935697 0.721021264758313 0.824024302580929 0.927027340403545 1.03003037822616 1.13303341604878 1.23603645387139 1.33903949169401 1.44204252951663 1.54504556733924 1.64804860516186 1.75105164298447 1.85405468080709 1.95705771862971 2.06006075645232 2.16306379427494 2.26606683209756 2.36906986992017 2.47207290774279 2.5750759455654 2.67807898338802 2.78108202121064 2.88408505903325 2.98708809685587 3.09009113467849 3.1930941725011 3.29609721032372 3.39910024814633 3.50210328596895 3.60510632379157 3.70810936161418 3.8111123994368 3.91411543725942 4.01711847508203 4.12012151290465 4.22312455072727 4.32612758854988 4.4291306263725 4.53213366419511 4.63513670201773 4.73813973984035 4.84114277766296 4.94414581548558 5.0471488533082 5.15015189113081 5.25315492895343 5.35615796677604 5.45916100459866 5.56216404242128 5.66516708024389 5.76817011806651 5.87117315588913 5.97417619371174 6.07717923153436 6.18018226935698 6.28318530717959 
2 63 2 
p 0.00400000008 1 0 10 
2 64 1 
p 0.00400000008 1 0 10 
62 64 65 66 67 68 69 70 71 72 73 74 75 76 77 78 79 80 81 82 83 84 85 86 87 88 89 90 91 92 93 94 95 96 97 98 99 100 101 102 103 104 105 106 107 108 109 110 111 112 113 114 115 116 117 118 119 120 121 122 123 124 63 
p 0.00400000008 1 0 0.103003037822616 0.206006075645232 0.309009113467848 0.412012151290465 0.515015189113081 0.618018226935697 0.721021264758313 0.824024302580929 0.927027340403545 1.03003037822616 1.13303341604878 1.23603645387139 1.33903949169401 1.44204252951663 1.54504556733924 1.64804860516186 1.75105164298447 1.85405468080709 1.95705771862971 2.06006075645232 2.16306379427494 2.26606683209756 2.36906986992017 2.47207290774279 2.5750759455654 2.67807898338802 2.78108202121064 2.88408505903325 2.98708809685587 3.09009113467849 3.1930941725011 3.29609721032372 3.39910024814633 3.50210328596895 3.60510632379157 3.70810936161418 3.8111123994368 3.91411543725942 4.01711847508203 4.12012151290465 4.22312455072727 4.32612758854988 4.4291306263725 4.53213366419511 4.63513670201773 4.73813973984035 4.84114277766296 4.94414581548558 5.0471488533082 5.15015189113081 5.25315492895343 5.35615796677604 5.45916100459866 5.56216404242128 5.66516708024389 5.76817011806651 5.87117315588913 5.97417619371174 6.07717923153436 6.18018226935698 6.28318530717959 
62 1 2 3 4 5 6 7 8 9 10 11 12 13 14 15 16 17 18 19 20 21 22 23 24 25 26 27 28 29 30 31 32 33 34 35 36 37 38 39 40 41 42 43 44 45 46 47 48 49 50 51 52 53 54 55 56 57 58 59 60 61 1 
p 0.00400000008 1 0 0.103003037822616 0.206006075645232 0.309009113467848 0.412012151290465 0.515015189113081 0.618018226935697 0.721021264758313 0.824024302580929 0.927027340403545 1.03003037822616 1.13303341604878 1.23603645387139 1.33903949169401 1.44204252951663 1.54504556733924 1.64804860516186 1.75105164298447 1.85405468080709 1.95705771862971 2.06006075645232 2.16306379427494 2.26606683209756 2.36906986992017 2.47207290774279 2.5750759455654 2.67807898338802 2.78108202121064 2.88408505903325 2.98708809685587 3.09009113467849 3.1930941725011 3.29609721032372 3.39910024814633 3.50210328596895 3.60510632379157 3.70810936161418 3.8111123994368 3.91411543725942 4.01711847508203 4.12012151290465 4.22312455072727 4.32612758854988 4.4291306263725 4.53213366419511 4.63513670201773 4.73813973984035 4.84114277766296 4.94414581548558 5.0471488533082 5.15015189113081 5.25315492895343 5.35615796677604 5.45916100459866 5.56216404242128 5.66516708024389 5.76817011806651 5.87117315588913 5.97417619371174 6.07717923153436 6.18018226935698 6.28318530717959 
Surfaces 3
2 0 0 -5 0 0 1 1 0 -0 -0 1 0 1.5
1 0 0 5 0 0 1 1 0 -0 -0 1 0 
1 0 0 -5 0 0 1 1 0 -0 -0 1 0 
Triangulations 3
124 122 1 0.00198886517275448
1.5 -3.67394039744206e-16 5 1.5 -3.67394039744206e-16 5 1.49204981342188 0.154231495706041 5 1.46828352764304 0.306828099189301 5 1.42895307120507 0.456172248491277 5 1.37447535673051 0.6006808584769 5 1.30542786154523 0.738822101930797 5 1.22254250627522 0.869131647306845 5 1.12669789630578 0.990228181006847 5 1.01891000834594 1.1008280496483 5 0.900321420822553 1.19975886710958 5 0.772189202264747 1.2859719421145 5 0.635871586064792 1.35855339462071 5 0.492813572866253 1.41673384317549 5 0.344531613197694 1.45989656055057 5 0.192597532719827 1.48758401120415 5 0.038621870482484 1.49950270127147 5 -0.115763193189968 1.49552628967279 5 -0.268921138216102 1.47569692736027 5 -0.419228452277413 1.4402248105074 5 -0.565091840452776 1.38948595237724 5 -0.704965114540979 1.32401819748832 5 -0.837365583040296 1.24451552032893 5 -0.960889768047262 1.1518206690549 5 -1.07422828247159 1.04691623214952 5 -1.17617970986507 0.930914222741135 5 -1.26566333973478 0.805044290987401 5 -1.34173062334319 0.670640689477671 5 -1.40357522856074 0.529128129823642 5 -1.45054158718698 0.382006680361843 5 -1.48213184413662 0.230835865056092 5 -1.49801113482725 0.0772181321555188 5 -1.49801113482725 -0.0772181321555211 5 -1.48213184413662 -0.230835865056094 5 -1.45054158718698 -0.382006680361845 5 -1.40357522856074 -0.529128129823644 5 -1.34173062334319 -0.670640689477673 5 -1.26566333973478 -0.805044290987403 5 -1.17617970986506 -0.930914222741136 5 -1.07422828247159 -1.04691623214952 5 -0.960889768047261 -1.1518206690549 5 -0.837365583040295 -1.24451552032893 5 -0.704965114540977 -1.32401819748832 5 -0.565091840452775 -1.38948595237724 5 -0.419228452277411 -1.4402248105074 5 -0.2689211382161 -1.47569692736028 5 -0.115763193189966 -1.49552628967279 5 0.0386218704824869 -1.49950270127147 5 0.192597532719831 -1.48758401120415 5 0.344531613197698 -1.45989656055057 5 0.492813572866257 -1.41673384317549 5 0.635871586064796 -1.35855339462071 5 0.772189202264751 -1.2859719421145 5 0.900321420822557 -1.19975886710958 5 1.01891000834594 -1.10082804964829 5 1.12669789630578 -0.990228181006843 5 1.22254250627522 -0.86913164730684 5 1.30542786154524 -0.738822101930791 5 1.37447535673051 -0.600680858476894 5 1.42895307120508 -0.45617224849127 5 1.46828352764304 -0.306828099189294 5 1.49204981342188 -0.154231495706033 5 1.5 -3.67394039744206e-16 -5 1.5 -3.67394039744206e-16 -5 1.49204981342188 0.154231495706041 -5 1.46828352764304 0.306828099189301 -5 1.42895307120507 0.456172248491277 -5 1.37447535673051 0.6006808584769 -5 1.30542786154523 0.738822101930797 -5 1.22254250627522 0.869131647306845 -5 1.12669789630578 0.990228181006847 -5 1.01891000834594 1.1008280496483 -5 0.900321420822553 1.19975886710958 -5 0.772189202264747 1.2859719421145 -5 0.635871586064792 1.35855339462071 -5 0.492813572866253 1.41673384317549 -5 0.344531613197694 1.45989656055057 -5 0.192597532719827 1.48758401120415 -5 0.038621870482484 1.49950270127147 -5 -0.115763193189968 1.49552628967279 -5 -0.268921138216102 1.47569692736027 -5 -0.419228452277413 1.4402248105074 -5 -0.565091840452776 1.38948595237724 -5 -0.704965114540979 1.32401819748832 -5 -0.837365583040296 1.24451552032893 -5 -0.960889768047262 1.1518206690549 -5 -1.07422828247159 1.04691623214952 -5 -1.17617970986507 0.930914222741135 -5 -1.26566333973478 0.805044290987401 -5 -1.34173062334319 0.670640689477671 -5 -1.40357522856074 0.529128129823642 -5 -1.45054158718698 0.382006680361843 -5 -1.48213184413662 0.230835865056092 -5 -1.49801113482725 0.0772181321555188 -5 -1.49801113482725 -0.0772181321555211 -5 -1.48213184413662 -0.230835865056094 -5 -1.45054158718698 -0.382006680361845 -5 -1.40357522856074 -0.529128129823644 -5 -1.34173062334319 -0.670640689477673 -5 -1.26566333973478 -0.805044290987403 -5 -1.17617970986506 -0.930914222741136 -5 -1.07422828247159 -1.04691623214952 -5 -0.960889768047261 -1.1518206690549 -5 -0.837365583040295 -1.24451552032893 -5 -0.704965114540977 -1.32401819748832 -5 -0.565091840452775 -1.38948595237724 -5 -0.419228452277411 -1.4402248105074 -5 -0.2689211382161 -1.47569692736028 -5 -0.115763193189966 -1.49552628967279 -5 0.0386218704824869 -1.49950270127147 -5 0.192597532719831 -1.48758401120415 -5 0.344531613197698 -1.45989656055057 -5 0.492813572866257 -1.41673384317549 -5 0.635871586064796 -1.35855339462071 -5 0.772189202264751 -1.2859719421145 -5 0.900321420822557 -1.19975886710958 -5 1.01891000834594 -1.10082804964829 -5 1.12669789630578 -0.990228181006843 -5 1.22254250627522 -0.86913164730684 -5 1.30542786154524 -0.738822101930791 -5 1.37447535673051 -0.600680858476894 -5 1.42895307120508 -0.45617224849127 -5 1.46828352764304 -0.306828099189294 -5 1.49204981342188 -0.154231495706033 -5 0 10 6.28318530717959 10 0.103003037822616 10 0.206006075645232 10 0.309009113467848 10 0.412012151290465 10 0.515015189113081 10 0.618018226935697 10 0.721021264758313 10 0.824024302580929 10 0.927027340403545 10 1.03003037822616 10 1.13303341604878 10 1.23603645387139 10 1.33903949169401 10 1.44204252951663 10 1.54504556733924 10 1.64804860516186 10 1.75105164298447 10 1.85405468080709 10 1.95705771862971 10 2.06006075645232 10 2.16306379427494 10 2.26606683209756 10 2.36906986992017 10 2.47207290774279 10 2.5750759455654 10 2.67807898338802 10 2.78108202121064 10 2.88408505903325 10 2.98708809685587 10 3.09009113467849 10 3.1930941725011 10 3.29609721032372 10 3.39910024814633 10 3.50210328596895 10 3.60510632379157 10 3.70810936161418 10 3.8111123994368 10 3.91411543725942 10 4.01711847508203 10 4.12012151290465 10 4.22312455072727 10 4.32612758854988 10 4.4291306263725 10 4.53213366419511 10 4.63513670201773 10 4.73813973984035 10 4.84114277766296 10 4.94414581548558 10 5.0471488533082 10 5.15015189113081 10 5.25315492895343 10 5.35615796677604 10 5.45916100459866 10 5.56216404242128 10 5.66516708024389 10 5.76817011806651 10 5.87117315588913 10 5.97417619371174 10 6.07717923153436 10 6.18018226935698 10 6.28318530717959 0 0 0 0.103003037822616 0 0.206006075645232 0 0.309009113467848 0 0.412012151290465 0 0.515015189113081 0 0.618018226935697 0 0.721021264758313 0 0.824024302580929 0 0.927027340403545 0 1.03003037822616 0 1.13303341604878 0 1.23603645387139 0 1.33903949169401 0 1.44204252951663 0 1.54504556733924 0 1.64804860516186 0 1.75105164298447 0 1.85405468080709 0 1.95705771862971 0 2.06006075645232 0 2.16306379427494 0 2.26606683209756 0 2.36906986992017 0 2.47207290774279 0 2.5750759455654 0 2.67807898338802 0 2.78108202121064 0 2.88408505903325 0 2.98708809685587 0 3.09009113467849 0 3.1930941725011 0 3.29609721032372 0 3.39910024814633 0 3.50210328596895 0 3.60510632379157 0 3.70810936161418 0 3.8111123994368 0 3.91411543725942 0 4.01711847508203 0 4.12012151290465 0 4.22312455072727 0 4.32612758854988 0 4.4291306263725 0 4.53213366419511 0 4.63513670201773 0 4.73813973984035 0 4.84114277766296 0 4.94414581548558 0 5.0471488533082 0 5.15015189113081 0 5.25315492895343 0 5.35615796677604 0 5.45916100459866 0 5.56216404242128 0 5.66516708024389 0 5.76817011806651 0 5.87117315588913 0 5.97417619371174 0 6.07717923153436 0 6.18018226935698 0 3 1 64 3 64 65 4 3 65 4 65 66 5 4 66 5 66 67 5 67 68 6 5 68 6 68 69 7 6 69 7 69 70 8 7 70 9 8 70 9 70 71 9 71 72 10 9 72 11 10 72 11 72 73 11 73 74 12 11 74 12 74 75 13 12 75 13 75 76 14 13 76 15 76 77 15 77 78 15 14 76 16 78 79 16 15 78 17 79 80 17 16 79 18 17 80 19 80 81 19 81 82 19 18 80 20 19 82 21 20 82 21 82 83 22 21 83 22 83 84 23 22 84 23 84 85 24 23 85 24 85 86 25 24 86 25 86 87 26 25 87 26 87 88 27 26 88 27 88 89 28 27 89 28 89 90 29 28 90 29 90 91 30 29 91 30 91 92 31 30 92 31 92 93 32 31 93 32 93 94 33 32 94 33 94 95 34 33 95 34 95 96 35 34 96 35 96 97 36 35 97 36 97 98 37 36 98 37 98 99 38 37 99 38 99 100 39 38 100 39 100 101 40 39 101 40 101 102 41 102 103 41 40 102 42 103 104 42 41 103 43 104 105 43 42 104 44 105 106 44 43 105 45 106 107 45 44 106 46 45 107 46 107 108 47 108 109 47 46 108 48 47 109 48 109 110 49 110 111 49 48 110 50 111 112 50 49 111 51 112 113 51 50 112 52 113 114 52 51 113 53 114 115 53 52 114 54 115 116 54 53 115 55 116 117 55 54 116 56 117 118 56 55 117 57 118 119 57 56 118 58 119 120 58 57 119 59 120 121 59 58 120 60 121 122 60 59 121 61 122 123 61 60 122 62 123 124 62 61 123 2 124 63 2 62 124 
61 59 1 2.21177243187043e-16
1.5 -3.67394039744206e-16 5 1.49204981342188 0.154231495706041 5 1.46828352764304 0.306828099189301 5 1.42895307120507 0.456172248491277 5 1.37447535673051 0.6006808584769 5 1.30542786154523 0.738822101930797 5 1.22254250627522 0.869131647306845 5 1.12669789630578 0.990228181006847 5 1.01891000834594 1.1008280496483 5 0.900321420822553 1.19975886710958 5 0.772189202264747 1.2859719421145 5 0.635871586064792 1.35855339462071 5 0.492813572866253 1.41673384317549 5 0.344531613197694 1.45989656055057 5 0.192597532719827 1.48758401120415 5 0.038621870482484 1.49950270127147 5 -0.115763193189968 1.49552628967279 5 -0.268921138216102 1.47569692736027 5 -0.419228452277413 1.4402248105074 5 -0.565091840452776 1.38948595237724 5 -0.704965114540979 1.32401819748832 5 -0.837365583040296 1.24451552032893 5 -0.960889768047262 1.1518206690549 5 -1.07422828247159 1.04691623214952 5 -1.17617970986507 0.930914222741135 5 -1.26566333973478 0.805044290987401 5 -1.34173062334319 0.670640689477671 5 -1.40357522856074 0.529128129823642 5 -1.45054158718698 0.382006680361843 5 -1.48213184413662 0.230835865056092 5 -1.49801113482725 0.0772181321555188 5 -1.49801113482725 -0.0772181321555211 5 -1.48213184413662 -0.230835865056094 5 -1.45054158718698 -0.382006680361845 5 -1.40357522856074 -0.529128129823644 5 -1.34173062334319 -0.670640689477673 5 -1.26566333973478 -0.805044290987403 5 -1.17617970986506 -0.930914222741136 5 -1.07422828247159 -1.04691623214952 5 -0.960889768047261 -1.1518206690549 5 -0.837365583040295 -1.24451552032893 5 -0.704965114540977 -1.32401819748832 5 -0.565091840452775 -1.38948595237724 5 -0.419228452277411 -1.4402248105074 5 -0.2689211382161 -1.47569692736028 5 -0.115763193189966 -1.49552628967279 5 0.0386218704824869 -1.49950270127147 5 0.192597532719831 -1.48758401120415 5 0.344531613197698 -1.45989656055057 5 0.492813572866257 -1.41673384317549 5 0.635871586064796 -1.35855339462071 5 0.772189202264751 -1.2859719421145 5 0.900321420822557 -1.19975886710958 5 1.01891000834594 -1.10082804964829 5 1.12669789630578 -0.990228181006843 5 1.22254250627522 -0.86913164730684 5 1.30542786154524 -0.738822101930791 5 1.37447535673051 -0.600680858476894 5 1.42895307120508 -0.45617224849127 5 1.46828352764304 -0.306828099189294 5 1.49204981342188 -0.154231495706033 5 1.5 0 1.49204981342188 0.154231495706041 1.46828352764304 0.306828099189301 1.42895307120507 0.456172248491277 1.37447535673051 0.600680858476899 1.30542786154523 0.738822101930797 1.22254250627522 0.869131647306845 1.12669789630578 0.990228181006847 1.01891000834594 1.1008280496483 0.900321420822553 1.19975886710958 0.772189202264747 1.2859719421145 0.635871586064792 1.35855339462071 0.492813572866253 1.41673384317549 0.344531613197694 1.45989656055057 0.192597532719827 1.48758401120415 0.0386218704824839 1.49950270127147 -0.115763193189968 1.49552628967279 -0.268921138216102 1.47569692736027 -0.419228452277413 1.4402248105074 -0.565091840452776 1.38948595237724 -0.704965114540979 1.32401819748832 -0.837365583040296 1.24451552032893 -0.960889768047262 1.1518206690549 -1.07422828247159 1.04691623214952 -1.17617970986507 0.930914222741134 -1.26566333973478 0.8050442909874 -1.34173062334319 0.670640689477671 -1.40357522856074 0.529128129823642 -1.45054158718698 0.382006680361842 -1.48213184413662 0.230835865056092 -1.49801113482725 0.0772181321555188 -1.49801113482725 -0.077218132155521 -1.48213184413662 -0.230835865056094 -1.45054158718698 -0.382006680361845 -1.40357522856074 -0.529128129823644 -1.34173062334319 -0.670640689477673 -1.26566333973478 -0.805044290987403 -1.17617970986506 -0.930914222741136 -1.07422828247159 -1.04691623214952 -0.960889768047261 -1.1518206690549 -0.837365583040295 -1.24451552032893 -0.704965114540977 -1.32401819748832 -0.565091840452775 -1.38948595237724 -0.419228452277411 -1.4402248105074 -0.2689211382161 -1.47569692736028 -0.115763193189966 -1.49552628967279 0.038621870482487 -1.49950270127147 0.192597532719831 -1.48758401120415 0.344531613197698 -1.45989656055057 0.492813572866257 -1.41673384317549 0.635871586064796 -1.35855339462071 0.772189202264751 -1.2859719421145 0.900321420822557 -1.19975886710958 1.01891000834594 -1.10082804964829 1.12669789630578 -0.990228181006843 1.22254250627522 -0.86913164730684 1.30542786154524 -0.738822101930791 1.37447535673051 -0.600680858476894 1.42895307120508 -0.45617224849127 1.46828352764304 -0.306828099189294 1.49204981342188 -0.154231495706033 13 14 15 27 28 29 20 21 22 38 39 40 42 40 41 53 50 51 53 51 52 18 20 22 18 19 20 18 22 23 18 23 24 18 24 25 18 25 26 18 26 27 18 31 32 18 32 33 18 33 34 18 34 35 18 35 36 18 36 37 18 37 38 18 42 43 18 43 44 18 44 45 18 45 46 18 38 40 18 40 42 18 29 31 18 27 29 9 13 15 9 4 5 9 5 6 9 18 46 9 6 7 9 7 8 9 10 11 9 11 12 9 12 13 9 53 56 9 50 53 9 46 47 9 56 57 9 15 18 9 57 58 9 58 59 9 59 60 9 60 61 9 61 1 9 1 4 9 47 50 56 53 54 56 54 55 15 16 17 15 17 18 29 30 31 50 47 48 50 48 49 4 1 2 4 2 3 
61 59 1 2.21177243187043e-16
1.5 -3.67394039744206e-16 -5 1.49204981342188 0.154231495706041 -5 1.46828352764304 0.306828099189301 -5 1.42895307120507 0.456172248491277 -5 1.37447535673051 0.6006808584769 -5 1.30542786154523 0.738822101930797 -5 1.22254250627522 0.869131647306845 -5 1.12669789630578 0.990228181006847 -5 1.01891000834594 1.1008280496483 -5 0.900321420822553 1.19975886710958 -5 0.772189202264747 1.2859719421145 -5 0.635871586064792 1.35855339462071 -5 0.492813572866253 1.41673384317549 -5 0.344531613197694 1.45989656055057 -5 0.192597532719827 1.48758401120415 -5 0.038621870482484 1.49950270127147 -5 -0.115763193189968 1.49552628967279 -5 -0.268921138216102 1.47569692736027 -5 -0.419228452277413 1.4402248105074 -5 -0.565091840452776 1.38948595237724 -5 -0.704965114540979 1.32401819748832 -5 -0.837365583040296 1.24451552032893 -5 -0.960889768047262 1.1518206690549 -5 -1.07422828247159 1.04691623214952 -5 -1.17617970986507 0.930914222741135 -5 -1.26566333973478 0.805044290987401 -5 -1.34173062334319 0.670640689477671 -5 -1.40357522856074 0.529128129823642 -5 -1.45054158718698 0.382006680361843 -5 -1.48213184413662 0.230835865056092 -5 -1.49801113482725 0.0772181321555188 -5 -1.49801113482725 -0.0772181321555211 -5 -1.48213184413662 -0.230835865056094 -5 -1.45054158718698 -0.382006680361845 -5 -1.40357522856074 -0.529128129823644 -5 -1.34173062334319 -0.670640689477673 -5 -1.26566333973478 -0.805044290987403 -5 -1.17617970986506 -0.930914222741136 -5 -1.07422828247159 -1.04691623214952 -5 -0.960889768047261 -1.1518206690549 -5 -0.837365583040295 -1.24451552032893 -5 -0.704965114540977 -1.32401819748832 -5 -0.565091840452775 -1.38948595237724 -5 -0.419228452277411 -1.4402248105074 -5 -0.2689211382161 -1.47569692736028 -5 -0.115763193189966 -1.49552628967279 -5 0.0386218704824869 -1.49950270127147 -5 0.192597532719831 -1.48758401120415 -5 0.344531613197698 -1.45989656055057 -5 0.492813572866257 -1.41673384317549 -5 0.635871586064796 -1.35855339462071 -5 0.772189202264751 -1.2859719421145 -5 0.900321420822557 -1.19975886710958 -5 1.01891000834594 -1.10082804964829 -5 1.12669789630578 -0.990228181006843 -5 1.22254250627522 -0.86913164730684 -5 1.30542786154524 -0.738822101930791 -5 1.37447535673051 -0.600680858476894 -5 1.42895307120508 -0.45617224849127 -5 1.46828352764304 -0.306828099189294 -5 1.49204981342188 -0.154231495706033 -5 1.5 0 1.49204981342188 0.154231495706041 1.46828352764304 0.306828099189301 1.42895307120507 0.456172248491277 1.37447535673051 0.600680858476899 1.30542786154523 0.738822101930797 1.22254250627522 0.869131647306845 1.12669789630578 0.990228181006847 1.01891000834594 1.1008280496483 0.900321420822553 1.19975886710958 0.772189202264747 1.2859719421145 0.635871586064792 1.35855339462071 0.492813572866253 1.41673384317549 0.344531613197694 1.45989656055057 0.192597532719827 1.48758401120415 0.0386218704824839 1.49950270127147 -0.115763193189968 1.49552628967279 -0.268921138216102 1.47569692736027 -0.419228452277413 1.4402248105074 -0.565091840452776 1.38948595237724 -0.704965114540979 1.32401819748832 -0.837365583040296 1.24451552032893 -0.960889768047262 1.1518206690549 -1.07422828247159 1.04691623214952 -1.17617970986507 0.930914222741134 -1.26566333973478 0.8050442909874 -1.34173062334319 0.670640689477671 -1.40357522856074 0.529128129823642 -1.45054158718698 0.382006680361842 -1.48213184413662 0.230835865056092 -1.49801113482725 0.0772181321555188 -1.49801113482725 -0.077218132155521 -1.48213184413662 -0.230835865056094 -1.45054158718698 -0.382006680361845 -1.40357522856074 -0.529128129823644 -1.34173062334319 -0.670640689477673 -1.26566333973478 -0.805044290987403 -1.17617970986506 -0.930914222741136 -1.07422828247159 -1.04691623214952 -0.960889768047261 -1.1518206690549 -0.837365583040295 -1.24451552032893 -0.704965114540977 -1.32401819748832 -0.565091840452775 -1.38948595237724 -0.419228452277411 -1.4402248105074 -0.2689211382161 -1.47569692736028 -0.115763193189966 -1.49552628967279 0.038621870482487 -1.49950270127147 0.192597532719831 -1.48758401120415 0.344531613197698 -1.45989656055057 0.492813572866257 -1.41673384317549 0.635871586064796 -1.35855339462071 0.772189202264751 -1.2859719421145 0.900321420822557 -1.19975886710958 1.01891000834594 -1.10082804964829 1.12669789630578 -0.990228181006843 1.22254250627522 -0.86913164730684 1.30542786154524 -0.738822101930791 1.37447535673051 -0.600680858476894 1.42895307120508 -0.45617224849127 1.46828352764304 -0.306828099189294 1.49204981342188 -0.154231495706033 13 14 15 27 28 29 20 21 22 38 39 40 42 40 41 53 50 51 53 51 52 18 20 22 18 19 20 18 22 23 18 23 24 18 24 25 18 25 26 18 26 27 18 31 32 18 32 33 18 33 34 18 34 35 18 35 36 18 36 37 18 37 38 18 42 43 18 43 44 18 44 45 18 45 46 18 38 40 18 40 42 18 29 31 18 27 29 9 13 15 9 4 5 9 5 6 9 18 46 9 6 7 9 7 8 9 10 11 9 11 12 9 12 13 9 53 56 9 50 53 9 46 47 9 56 57 9 15 18 9 57 58 9 58 59 9 59 60 9 60 61 9 61 1 9 1 4 9 47 50 56 53 54 56 54 55 15 16 17 15 17 18 29 30 31 50 47 48 50 48 49 4 1 2 4 2 3 

TShapes 13
Ve
1e-07
1.5 -3.67394039744206e-16 5
0 0

0101101
*
Ed
 1e-07 1 1 0
1  1 0 0 6.28318530717959
2  1 1 0 0 6.28318530717959
2  2 2 0 0 6.28318530717959
6  1 1 0
6  2 2 0
0

0101000
+13 0 -13 0 *
Ve
1e-07
1.5 -3.67394039744206e-16 -5
0 0

0101101
*
Ed
 1e-07 1 1 0
1  2 0 0 10
3  3 4CN 1 0 0 10
7  3 4 1 0
0

0101000
-13 0 +11 0 *
Ed
 1e-07 1 1 0
1  3 0 0 6.28318530717959
2  5 1 0 0 6.28318530717959
2  6 3 0 0 6.28318530717959
6  5 1 0
6  6 3 0
0

0101000
+11 0 -11 0 *
Wi

0101100
-12 0 +10 0 +9 0 -10 0 *
Fa
0  1e-07 1 0
2  1
0101000
+8 0 *
Wi

0101100
+12 0 *
Fa
0  1e-07 2 0
2  2
0101000
+6 0 *
Wi

0101100
-9 0 *
Fa
0  1e-07 3 0
2  3
0101000
-4 0 *
Sh

0101100
+7 0 +5 0 -3 0 *
So

1100000
+2 0 *

+1 0 