DBRep_DrawableShape

CASCADE Topology V1, (c) Matra-Datavision
Locations 0
Curve2ds 30
1 0 0 1 0 
1 0 0 1 0 
1 6 0 0 -1 
1 0 0 0 1 
1 0 -6 1 0 
1 0 0 1 0 
1 0 0 0 -1 
1 0 0 0 1 
1 0 0 0 1 
1 0 0 1 0 
1 0 0 1 0 
1 0 6 1 0 
1 6 0 0 1 
1 0 0 1 0 
1 6 0 0 1 
1 0 6 1 0 
1 6 0 0 -1 
1 6 0 0 1 
1 0 0 0 1 
1 0 6 1 0 
1 0 -6 1 0 
1 0 6 1 0 
1 0 0 0 -1 
1 6 0 0 1 
1 0 3 1 0 
2 0 0 1 0 -0 1 1.5
1 6.2831853071795862 -0 0 1 
1 0 -0 0 1 
1 0 0 1 0 
2 0 0 1 0 -0 1 1.5
Curves 15
1 -3 -3 -3 0 0 1 
1 -3 -3 3 -0 1 0 
1 -3 3 -3 0 0 1 
1 -3 -3 -3 -0 1 0 
1 -3 -3 -3 1 0 -0 
1 3 -3 -3 0 0 1 
1 -3 -3 3 1 0 -0 
1 -3 3 3 1 0 -0 
1 3 -3 3 -0 1 0 
1 -3 3 -3 1 0 -0 
1 3 3 -3 0 0 1 
1 3 -3 -3 -0 1 0 
2 0 0 2.5 0 0 1 1 0 -0 -0 1 0 1.5
1 1.5 -3.6739403974420594e-16 -0.5 0 0 1 
2 0 0 -0.5 0 0 1 1 0 -0 -0 1 0 1.5
Polygon3D 0
PolygonOnTriangulations 30
2 1 2 
p 0.00240000008 1 0 6 
2 1 4 
p 0.00240000008 1 0 6 
2 2 3 
p 0.00240000008 1 0 6 
2 1 2 
p 0.00240000008 1 0 6 
2 4 3 
p 0.00240000008 1 0 6 
2 1 4 
p 0.00240000008 1 0 6 
2 1 4 
p 0.00240000008 1 0 6 
2 1 2 
p 0.00240000008 1 0 6 
2 1 2 
p 0.00240000008 1 0 6 
2 1 4 
p 0.00240000008 1 0 6 
2 2 3 
p 0.00240000008 1 0 6 
2 1 2 
p 0.00240000008 1 0 6 
2 4 3 
p 0.00240000008 1 0 6 
2 1 4 
p 0.00240000008 1 0 6 
2 2 3 
p 0.00240000008 1 0 6 
2 4 3 
p 0.00240000008 1 0 6 
2 4 3 
p 0.00240000008 1 0 6 
2 2 3 
p 0.00240000008 1 0 6 
2 1 2 
p 0.00240000008 1 0 6 
2 2 3 
p 0.00240000008 1 0 6 
2 2 3 
p 0.00240000008 1 0 6 
2 4 3 
p 0.00240000008 1 0 6 
2 4 3 
p 0.00240000008 1 0 6 
2 1 4 
p 0.00240000008 1 0 6 
80 1 3 4 5 6 7 8 9 10 11 12 13 14 15 16 17 18 19 20 21 22 23 24 25 26 27 28 29 30 31 32 33 34 35 36 37 38 39 40 41 42 43 44 45 46 47 48 49 50 51 52 53 54 55 56 57 58 59 60 61 62 63 64 65 66 67 68 69 70 71 72 73 74 75 76 77 78 79 80 2 
p 0.00240000008 1 0 0.0795339912301214 0.159067982460243 0.238601973690364 0.318135964920485 0.397669956150607 0.477203947380728 0.556737938610849 0.636271929840971 0.715805921071092 0.795339912301214 0.874873903531335 0.954407894761456 1.03394188599158 1.1134758772217 1.19300986845182 1.27254385968194 1.35207785091206 1.43161184214218 1.51114583337231 1.59067982460243 1.67021381583255 1.74974780706267 1.82928179829279 1.90881578952291 1.98834978075303 2.06788377198316 2.14741776321328 2.2269517544434 2.30648574567352 2.38601973690364 2.46555372813376 2.54508771936388 2.624621710594 2.70415570182413 2.78368969305425 2.86322368428437 2.94275767551449 3.02229166674461 3.10182565797473 3.18135964920485 3.26089364043497 3.34042763166509 3.41996162289522 3.49949561412534 3.57902960535546 3.65856359658558 3.7380975878157 3.81763157904582 3.89716557027594 3.97669956150606 4.05623355273619 4.13576754396631 4.21530153519643 4.29483552642655 4.37436951765667 4.45390350888679 4.53343750011692 4.61297149134704 4.69250548257716 4.77203947380728 4.8515734650374 4.93110745626752 5.01064144749764 5.09017543872777 5.16970942995789 5.24924342118801 5.32877741241813 5.40831140364825 5.48784539487837 5.5673793861085 5.64691337733862 5.72644736856874 5.80598135979886 5.88551535102898 5.9650493422591 6.04458333348923 6.12411732471935 6.20365131594947 6.28318530717959 
80 1 2 3 4 5 6 7 8 9 10 11 12 13 14 15 16 17 18 19 20 21 22 23 24 25 26 27 28 29 30 31 32 33 34 35 36 37 38 39 40 41 42 43 44 45 46 47 48 49 50 51 52 53 54 55 56 57 58 59 60 61 62 63 64 65 66 67 68 69 70 71 72 73 74 75 76 77 78 79 1 
p 0.00240000008 1 0 0.0795339912301214 0.159067982460243 0.238601973690364 0.318135964920485 0.397669956150607 0.477203947380728 0.556737938610849 0.636271929840971 0.715805921071092 0.795339912301214 0.874873903531335 0.954407894761456 1.03394188599158 1.1134758772217 1.19300986845182 1.27254385968194 1.35207785091206 1.43161184214218 1.51114583337231 1.59067982460243 1.67021381583255 1.74974780706267 1.82928179829279 1.90881578952291 1.98834978075303 2.06788377198316 2.14741776321328 2.2269517544434 2.30648574567352 2.38601973690364 2.46555372813376 2.54508771936388 2.624621710594 2.70415570182413 2.78368969305425 2.86322368428437 2.94275767551449 3.02229166674461 3.10182565797473 3.18135964920485 3.26089364043497 3.34042763166509 3.41996162289522 3.49949561412534 3.57902960535546 3.65856359658558 3.7380975878157 3.81763157904582 3.89716557027594 3.97669956150606 4.05623355273619 4.13576754396631 4.21530153519643 4.29483552642655 4.37436951765667 4.45390350888679 4.53343750011692 4.61297149134704 4.69250548257716 4.77203947380728 4.8515734650374 4.93110745626752 5.01064144749764 5.09017543872777 5.16970942995789 5.24924342118801 5.32877741241813 5.40831140364825 5.48784539487837 5.5673793861085 5.64691337733862 5.72644736856874 5.80598135979886 5.88551535102898 5.9650493422591 6.04458333348923 6.12411732471935 6.20365131594947 6.28318530717959 
2 81 2 
p 0.00240000008 1 0 3 
2 82 1 
p 0.00240000008 1 0 3 
80 82 83 84 85 86 87 88 89 90 91 92 93 94 95 96 97 98 99 100 101 102 103 104 105 106 107 108 109 110 111 112 113 114 115 116 117 118 119 120 121 122 123 124 125 126 127 128 129 130 131 132 133 134 135 136 137 138 139 140 141 142 143 144 145 146 147 148 149 150 151 152 153 154 155 156 157 158 159 160 81 
p 0.00240000008 1 0 0.0795339912301214 0.159067982460243 0.238601973690364 0.318135964920485 0.397669956150607 0.477203947380728 0.556737938610849 0.636271929840971 0.715805921071092 0.795339912301214 0.874873903531335 0.954407894761456 1.03394188599158 1.1134758772217 1.19300986845182 1.27254385968194 1.35207785091206 1.43161184214218 1.51114583337231 1.59067982460243 1.67021381583255 1.74974780706267 1.82928179829279 1.90881578952291 1.98834978075303 2.06788377198316 2.14741776321328 2.2269517544434 2.30648574567352 2.38601973690364 2.46555372813376 2.54508771936388 2.624621710594 2.70415570182413 2.78368969305425 2.86322368428437 2.94275767551449 3.02229166674461 3.10182565797473 3.18135964920485 3.26089364043497 3.34042763166509 3.41996162289522 3.49949561412534 3.57902960535546 3.65856359658558 3.7380975878157 3.81763157904582 3.89716557027594 3.97669956150606 4.05623355273619 4.13576754396631 4.21530153519643 4.29483552642655 4.37436951765667 4.45390350888679 4.53343750011692 4.61297149134704 4.69250548257716 4.77203947380728 4.8515734650374 4.93110745626752 5.01064144749764 5.09017543872777 5.16970942995789 5.24924342118801 5.32877741241813 5.40831140364825 5.48784539487837 5.5673793861085 5.64691337733862 5.72644736856874 5.80598135979886 5.88551535102898 5.9650493422591 6.04458333348923 6.12411732471935 6.20365131594947 6.28318530717959 
80 1 2 3 4 5 6 7 8 9 10 11 12 13 14 15 16 17 18 19 20 21 22 23 24 25 26 27 28 29 30 31 32 33 34 35 36 37 38 39 40 41 42 43 44 45 46 47 48 49 50 51 52 53 54 55 56 57 58 59 60 61 62 63 64 65 66 67 68 69 70 71 72 73 74 75 76 77 78 79 1 
p 0.00240000008 1 0 0.0795339912301214 0.159067982460243 0.238601973690364 0.318135964920485 0.397669956150607 0.477203947380728 0.556737938610849 0.636271929840971 0.715805921071092 0.795339912301214 0.874873903531335 0.954407894761456 1.03394188599158 1.1134758772217 1.19300986845182 1.27254385968194 1.35207785091206 1.43161184214218 1.51114583337231 1.59067982460243 1.67021381583255 1.74974780706267 1.82928179829279 1.90881578952291 1.98834978075303 2.06788377198316 2.14741776321328 2.2269517544434 2.30648574567352 2.38601973690364 2.46555372813376 2.54508771936388 2.624621710594 2.70415570182413 2.78368969305425 2.86322368428437 2.94275767551449 3.02229166674461 3.10182565797473 3.18135964920485 3.26089364043497 3.34042763166509 3.41996162289522 3.49949561412534 3.57902960535546 3.65856359658558 3.7380975878157 3.81763157904582 3.89716557027594 3.97669956150606 4.05623355273619 4.13576754396631 4.21530153519643 4.29483552642655 4.37436951765667 4.45390350888679 4.53343750011692 4.61297149134704 4.69250548257716 4.77203947380728 4.8515734650374 4.93110745626752 5.01064144749764 5.09017543872777 5.16970942995789 5.24924342118801 5.32877741241813 5.40831140364825 5.48784539487837 5.5673793861085 5.64691337733862 5.72644736856874 5.80598135979886 5.88551535102898 5.9650493422591 6.04458333348923 6.12411732471935 6.20365131594947 6.28318530717959 
Surfaces 9
1 -3 -3 -3 1 0 -0 0 0 1 0 -1 0 
1 -3 -3 -3 -0 1 0 0 0 1 1 0 -0 
1 -3 -3 3 0 0 1 1 0 -0 -0 1 0 
1 -3 3 -3 -0 1 0 0 0 1 1 0 -0 
1 -3 -3 -3 0 0 1 1 0 -0 -0 1 0 
1 3 -3 -3 1 0 -0 0 0 1 0 -1 0 
2 0 0 -0.5 0 0 1 1 0 -0 -0 1 0 1.5
1 0 0 2.5 0 0 1 1 0 -0 -0 1 0 
1 0 0 -0.5 0 0 1 1 0 -0 -0 1 0 
Triangulations 9
4 2 1 0
-3 -3 -3 -3 -3 3 -3 3 3 -3 3 -3 0 0 6 0 6 -6 0 -6 2 4 3 2 1 4 
4 2 1 0
-3 -3 -3 3 -3 -3 3 -3 3 -3 -3 3 0 0 0 6 6 6 6 0 3 2 1 3 1 4 
4 2 1 0
-3 -3 3 -3 3 3 3 3 3 3 -3 3 0 0 0 6 6 6 6 0 3 2 1 3 1 4 
4 2 1 0
-3 3 -3 3 3 -3 3 3 3 -3 3 3 0 0 0 6 6 6 6 0 3 2 1 3 1 4 
4 2 1 0
-3 -3 -3 -3 3 -3 3 3 -3 3 -3 -3 0 0 0 6 6 6 6 0 3 2 1 3 1 4 
4 2 1 0
3 -3 -3 3 -3 3 3 3 3 3 3 -3 0 0 6 0 6 -6 0 -6 2 4 3 2 1 4 
160 158 1 0.00118590415904746
1.5 -3.67394039744206e-16 2.5 1.5 -3.67394039744206e-16 2.5 1.49525825852204 0.119175250457572 2.5 1.4810630129045 0.237597036610822 2.5 1.45750401006062 0.354516657799357 2.5 1.42473019759167 0.469194910533341 2.5 1.38294878209231 0.580906761975962 2.5 1.3324239191237 0.688945933834467 2.5 1.27347504313705 0.792629367678929 2.5 1.20647484790615 0.891301543457566 2.5 1.13184693023735 0.984338623905564 2.5 1.05006311185414 1.07115239864512 2.5 0.96164045638833 1.15119400304086 2.5 0.867138000337272 1.22395738829874 2.5 0.767153218655133 1.28898252086949 2.5 0.662318247323867 1.34585829092882 2.5 0.553295886786011 1.39422511154608 2.5 0.440775411506881 1.43377719210864 2.5 0.325468212159477 1.46426447162858 2.5 0.208103297983602 1.48549419970875 2.5 0.0894226877547292 1.4973321551729 2.5 -0.0298232814976059 1.4997034946551 2.5 -0.148880698362093 1.49259322578364 2.5 -0.266996843516326 1.47604630196763 2.5 -0.383424948660713 1.45016733818706 2.5 -0.497428917828103 1.4151199495832 2.5 -0.608287981219492 1.37112571703105 2.5 -0.71530125214276 1.31846278623365 2.5 -0.817792158244002 1.25746410919541 2.5 -0.915112719015787 1.18851533919236 2.5 -1.00664764253856 1.11205239254793 2.5 -1.09181821555424 1.02855869262962 2.5 -1.17008596227782 0.93856211349084 2.5 -1.24095604881459 0.842631642481157 2.5 -1.30398041165937 0.741373782925085 2.5 -1.35876059049828 0.635428719612793 2.5 -1.40495024740309 0.525466271345738 2.5 -1.44225735649113 0.41218165612654 2.5 -1.47044605020695 0.296291095766931 2.5 -1.48933811055296 0.178527287702859 2.5 -1.49881409584095 0.0596347726453908 2.5 -1.49881409584095 -0.0596347726453858 2.5 -1.48933811055296 -0.178527287702854 2.5 -1.47044605020695 -0.296291095766926 2.5 -1.44225735649113 -0.412181656126535 2.5 -1.40495024740309 -0.525466271345733 2.5 -1.35876059049829 -0.635428719612788 2.5 -1.30398041165938 -0.741373782925081 2.5 -1.24095604881459 -0.842631642481153 2.5 -1.17008596227782 -0.938562113490836 2.5 -1.09181821555424 -1.02855869262962 2.5 -1.00664764253856 -1.11205239254792 2.5 -0.915112719015791 -1.18851533919236 2.5 -0.817792158244005 -1.25746410919541 2.5 -0.715301252142763 -1.31846278623365 2.5 -0.608287981219494 -1.37112571703105 2.5 -0.497428917828105 -1.4151199495832 2.5 -0.383424948660715 -1.45016733818705 2.5 -0.266996843516328 -1.47604630196763 2.5 -0.148880698362094 -1.49259322578364 2.5 -0.029823281497607 -1.4997034946551 2.5 0.0894226877547285 -1.4973321551729 2.5 0.208103297983601 -1.48549419970875 2.5 0.325468212159477 -1.46426447162858 2.5 0.440775411506881 -1.43377719210864 2.5 0.553295886786012 -1.39422511154608 2.5 0.662318247323868 -1.34585829092882 2.5 0.767153218655134 -1.28898252086949 2.5 0.867138000337274 -1.22395738829874 2.5 0.961640456388332 -1.15119400304086 2.5 1.05006311185414 -1.07115239864512 2.5 1.13184693023735 -0.984338623905561 2.5 1.20647484790615 -0.891301543457563 2.5 1.27347504313705 -0.792629367678926 2.5 1.3324239191237 -0.688945933834463 2.5 1.38294878209231 -0.580906761975958 2.5 1.42473019759168 -0.469194910533336 2.5 1.45750401006062 -0.354516657799352 2.5 1.4810630129045 -0.237597036610817 2.5 1.49525825852204 -0.119175250457566 2.5 1.5 -3.67394039744206e-16 -0.5 1.5 -3.67394039744206e-16 -0.5 1.49525825852204 0.119175250457572 -0.5 1.4810630129045 0.237597036610822 -0.5 1.45750401006062 0.354516657799357 -0.5 1.42473019759167 0.469194910533341 -0.5 1.38294878209231 0.580906761975962 -0.5 1.3324239191237 0.688945933834467 -0.5 1.27347504313705 0.792629367678929 -0.5 1.20647484790615 0.891301543457566 -0.5 1.13184693023735 0.984338623905564 -0.5 1.05006311185414 1.07115239864512 -0.5 0.96164045638833 1.15119400304086 -0.5 0.867138000337272 1.22395738829874 -0.5 0.767153218655133 1.28898252086949 -0.5 0.662318247323867 1.34585829092882 -0.5 0.553295886786011 1.39422511154608 -0.5 0.440775411506881 1.43377719210864 -0.5 0.325468212159477 1.46426447162858 -0.5 0.208103297983602 1.48549419970875 -0.5 0.0894226877547292 1.4973321551729 -0.5 -0.0298232814976059 1.4997034946551 -0.5 -0.148880698362093 1.49259322578364 -0.5 -0.266996843516326 1.47604630196763 -0.5 -0.383424948660713 1.45016733818706 -0.5 -0.497428917828103 1.4151199495832 -0.5 -0.608287981219492 1.37112571703105 -0.5 -0.71530125214276 1.31846278623365 -0.5 -0.817792158244002 1.25746410919541 -0.5 -0.915112719015787 1.18851533919236 -0.5 -1.00664764253856 1.11205239254793 -0.5 -1.09181821555424 1.02855869262962 -0.5 -1.17008596227782 0.93856211349084 -0.5 -1.24095604881459 0.842631642481157 -0.5 -1.30398041165937 0.741373782925085 -0.5 -1.35876059049828 0.635428719612793 -0.5 -1.40495024740309 0.525466271345738 -0.5 -1.44225735649113 0.41218165612654 -0.5 -1.47044605020695 0.296291095766931 -0.5 -1.48933811055296 0.178527287702859 -0.5 -1.49881409584095 0.0596347726453908 -0.5 -1.49881409584095 -0.0596347726453858 -0.5 -1.48933811055296 -0.178527287702854 -0.5 -1.47044605020695 -0.296291095766926 -0.5 -1.44225735649113 -0.412181656126535 -0.5 -1.40495024740309 -0.525466271345733 -0.5 -1.35876059049829 -0.635428719612788 -0.5 -1.30398041165938 -0.741373782925081 -0.5 -1.24095604881459 -0.842631642481153 -0.5 -1.17008596227782 -0.938562113490836 -0.5 -1.09181821555424 -1.02855869262962 -0.5 -1.00664764253856 -1.11205239254792 -0.5 -0.915112719015791 -1.18851533919236 -0.5 -0.817792158244005 -1.25746410919541 -0.5 -0.715301252142763 -1.31846278623365 -0.5 -0.608287981219494 -1.37112571703105 -0.5 -0.497428917828105 -1.4151199495832 -0.5 -0.383424948660715 -1.45016733818705 -0.5 -0.266996843516328 -1.47604630196763 -0.5 -0.148880698362094 -1.49259322578364 -0.5 -0.029823281497607 -1.4997034946551 -0.5 0.0894226877547285 -1.4973321551729 -0.5 0.208103297983601 -1.48549419970875 -0.5 0.325468212159477 -1.46426447162858 -0.5 0.440775411506881 -1.43377719210864 -0.5 0.553295886786012 -1.39422511154608 -0.5 0.662318247323868 -1.34585829092882 -0.5 0.767153218655134 -1.28898252086949 -0.5 0.867138000337274 -1.22395738829874 -0.5 0.961640456388332 -1.15119400304086 -0.5 1.05006311185414 -1.07115239864512 -0.5 1.13184693023735 -0.984338623905561 -0.5 1.20647484790615 -0.891301543457563 -0.5 1.27347504313705 -0.792629367678926 -0.5 1.3324239191237 -0.688945933834463 -0.5 1.38294878209231 -0.580906761975958 -0.5 1.42473019759168 -0.469194910533336 -0.5 1.45750401006062 -0.354516657799352 -0.5 1.4810630129045 -0.237597036610817 -0.5 1.49525825852204 -0.119175250457566 -0.5 0 3 6.28318530717959 3 0.0795339912301214 3 0.159067982460243 3 0.238601973690364 3 0.318135964920485 3 0.397669956150607 3 0.477203947380728 3 0.556737938610849 3 0.636271929840971 3 0.715805921071092 3 0.795339912301214 3 0.874873903531335 3 0.954407894761456 3 1.03394188599158 3 1.1134758772217 3 1.19300986845182 3 1.27254385968194 3 1.35207785091206 3 1.43161184214218 3 1.51114583337231 3 1.59067982460243 3 1.67021381583255 3 1.74974780706267 3 1.82928179829279 3 1.90881578952291 3 1.98834978075303 3 2.06788377198316 3 2.14741776321328 3 2.2269517544434 3 2.30648574567352 3 2.38601973690364 3 2.46555372813376 3 2.54508771936388 3 2.624621710594 3 2.70415570182413 3 2.78368969305425 3 2.86322368428437 3 2.94275767551449 3 3.02229166674461 3 3.10182565797473 3 3.18135964920485 3 3.26089364043497 3 3.34042763166509 3 3.41996162289522 3 3.49949561412534 3 3.57902960535546 3 3.65856359658558 3 3.7380975878157 3 3.81763157904582 3 3.89716557027594 3 3.97669956150606 3 4.05623355273619 3 4.13576754396631 3 4.21530153519643 3 4.29483552642655 3 4.37436951765667 3 4.45390350888679 3 4.53343750011692 3 4.61297149134704 3 4.69250548257716 3 4.77203947380728 3 4.8515734650374 3 4.93110745626752 3 5.01064144749764 3 5.09017543872777 3 5.16970942995789 3 5.24924342118801 3 5.32877741241813 3 5.40831140364825 3 5.48784539487837 3 5.5673793861085 3 5.64691337733862 3 5.72644736856874 3 5.80598135979886 3 5.88551535102898 3 5.9650493422591 3 6.04458333348922 3 6.12411732471935 3 6.20365131594947 3 6.28318530717959 0 0 0 0.0795339912301214 0 0.159067982460243 0 0.238601973690364 0 0.318135964920485 0 0.397669956150607 0 0.477203947380728 0 0.556737938610849 0 0.636271929840971 0 0.715805921071092 0 0.795339912301214 0 0.874873903531335 0 0.954407894761456 0 1.03394188599158 0 1.1134758772217 0 1.19300986845182 0 1.27254385968194 0 1.35207785091206 0 1.43161184214218 0 1.51114583337231 0 1.59067982460243 0 1.67021381583255 0 1.74974780706267 0 1.82928179829279 0 1.90881578952291 0 1.98834978075303 0 2.06788377198316 0 2.14741776321328 0 2.2269517544434 0 2.30648574567352 0 2.38601973690364 0 2.46555372813376 0 2.54508771936388 0 2.624621710594 0 2.70415570182413 0 2.78368969305425 0 2.86322368428437 0 2.94275767551449 0 3.02229166674461 0 3.10182565797473 0 3.18135964920485 0 3.26089364043497 0 3.34042763166509 0 3.41996162289522 0 3.49949561412534 0 3.57902960535546 0 3.65856359658558 0 3.7380975878157 0 3.81763157904582 0 3.89716557027594 0 3.97669956150606 0 4.05623355273619 0 4.13576754396631 0 4.21530153519643 0 4.29483552642655 0 4.37436951765667 0 4.45390350888679 0 4.53343750011692 0 4.61297149134704 0 4.69250548257716 0 4.77203947380728 0 4.8515734650374 0 4.93110745626752 0 5.01064144749764 0 5.09017543872777 0 5.16970942995789 0 5.24924342118801 0 5.32877741241813 0 5.40831140364825 0 5.48784539487837 0 5.5673793861085 0 5.64691337733862 0 5.72644736856874 0 5.80598135979886 0 5.88551535102898 0 5.9650493422591 0 6.04458333348922 0 6.12411732471935 0 6.20365131594947 0 3 1 82 3 82 83 4 3 83 4 83 84 5 4 84 5 84 85 6 5 85 6 85 86 7 86 87 7 6 86 8 87 88 8 7 87 9 88 89 9 8 88 10 89 90 10 9 89 11 90 91 11 10 90 12 11 91 12 91 92 13 12 92 13 92 93 14 13 93 14 93 94 15 14 94 15 94 95 16 15 95 16 95 96 17 16 96 17 96 97 18 17 97 18 97 98 19 18 98 19 98 99 20 19 99 20 99 100 21 20 100 21 100 101 22 21 101 22 101 102 23 102 103 23 22 102 24 103 104 24 23 103 25 104 105 25 24 104 26 105 106 26 25 105 27 106 107 27 26 106 28 107 108 28 27 107 29 108 109 29 28 108 30 109 110 30 29 109 31 110 111 31 30 110 32 111 112 32 31 111 33 112 113 33 32 112 34 113 114 34 33 113 35 114 115 35 34 114 36 115 116 36 35 115 37 36 116 37 116 117 38 37 117 38 117 118 39 38 118 39 118 119 40 39 119 40 119 120 41 120 121 41 40 120 42 121 122 42 41 121 43 122 123 43 42 122 44 123 124 44 43 123 45 124 125 45 44 124 46 125 126 46 45 125 47 126 127 47 46 126 48 127 128 48 47 127 49 128 129 49 48 128 50 129 130 50 49 129 51 130 131 51 50 130 52 131 132 52 51 131 53 132 133 53 52 132 54 133 134 54 53 133 55 134 135 55 54 134 56 135 136 56 55 135 57 136 137 57 56 136 58 137 138 58 57 137 59 138 139 59 58 138 60 139 140 60 59 139 61 140 141 61 60 140 62 141 142 62 61 141 63 62 142 63 142 143 64 63 143 64 143 144 65 64 144 65 144 145 66 65 145 66 145 146 67 66 146 67 146 147 68 67 147 68 147 148 69 68 148 69 148 149 70 69 149 70 149 150 71 70 150 71 150 151 72 71 151 72 151 152 73 72 152 73 152 153 74 73 153 74 153 154 75 74 154 75 154 155 76 155 156 76 75 155 77 156 157 77 76 156 78 157 158 78 77 157 79 158 159 79 78 158 80 159 160 80 79 159 2 160 81 2 80 160 
79 77 1 2.35922392732846e-16
1.5 -3.67394039744206e-16 2.5 1.49525825852204 0.119175250457572 2.5 1.4810630129045 0.237597036610822 2.5 1.45750401006062 0.354516657799357 2.5 1.42473019759167 0.469194910533341 2.5 1.38294878209231 0.580906761975962 2.5 1.3324239191237 0.688945933834467 2.5 1.27347504313705 0.792629367678929 2.5 1.20647484790615 0.891301543457566 2.5 1.13184693023735 0.984338623905564 2.5 1.05006311185414 1.07115239864512 2.5 0.96164045638833 1.15119400304086 2.5 0.867138000337272 1.22395738829874 2.5 0.767153218655133 1.28898252086949 2.5 0.662318247323867 1.34585829092882 2.5 0.553295886786011 1.39422511154608 2.5 0.440775411506881 1.43377719210864 2.5 0.325468212159477 1.46426447162858 2.5 0.208103297983602 1.48549419970875 2.5 0.0894226877547292 1.4973321551729 2.5 -0.0298232814976059 1.4997034946551 2.5 -0.148880698362093 1.49259322578364 2.5 -0.266996843516326 1.47604630196763 2.5 -0.383424948660713 1.45016733818706 2.5 -0.497428917828103 1.4151199495832 2.5 -0.608287981219492 1.37112571703105 2.5 -0.71530125214276 1.31846278623365 2.5 -0.817792158244002 1.25746410919541 2.5 -0.915112719015787 1.18851533919236 2.5 -1.00664764253856 1.11205239254793 2.5 -1.09181821555424 1.02855869262962 2.5 -1.17008596227782 0.93856211349084 2.5 -1.24095604881459 0.842631642481157 2.5 -1.30398041165937 0.741373782925085 2.5 -1.35876059049828 0.635428719612793 2.5 -1.40495024740309 0.525466271345738 2.5 -1.44225735649113 0.41218165612654 2.5 -1.47044605020695 0.296291095766931 2.5 -1.48933811055296 0.178527287702859 2.5 -1.49881409584095 0.0596347726453908 2.5 -1.49881409584095 -0.0596347726453858 2.5 -1.48933811055296 -0.178527287702854 2.5 -1.47044605020695 -0.296291095766926 2.5 -1.44225735649113 -0.412181656126535 2.5 -1.40495024740309 -0.525466271345733 2.5 -1.35876059049829 -0.635428719612788 2.5 -1.30398041165938 -0.741373782925081 2.5 -1.24095604881459 -0.842631642481153 2.5 -1.17008596227782 -0.938562113490836 2.5 -1.09181821555424 -1.02855869262962 2.5 -1.00664764253856 -1.11205239254792 2.5 -0.915112719015791 -1.18851533919236 2.5 -0.817792158244005 -1.25746410919541 2.5 -0.715301252142763 -1.31846278623365 2.5 -0.608287981219494 -1.37112571703105 2.5 -0.497428917828105 -1.4151199495832 2.5 -0.383424948660715 -1.45016733818705 2.5 -0.266996843516328 -1.47604630196763 2.5 -0.148880698362094 -1.49259322578364 2.5 -0.029823281497607 -1.4997034946551 2.5 0.0894226877547285 -1.4973321551729 2.5 0.208103297983601 -1.48549419970875 2.5 0.325468212159477 -1.46426447162858 2.5 0.440775411506881 -1.43377719210864 2.5 0.553295886786012 -1.39422511154608 2.5 0.662318247323868 -1.34585829092882 2.5 0.767153218655134 -1.28898252086949 2.5 0.867138000337274 -1.22395738829874 2.5 0.961640456388332 -1.15119400304086 2.5 1.05006311185414 -1.07115239864512 2.5 1.13184693023735 -0.984338623905561 2.5 1.20647484790615 -0.891301543457563 2.5 1.27347504313705 -0.792629367678926 2.5 1.3324239191237 -0.688945933834463 2.5 1.38294878209231 -0.580906761975958 2.5 1.42473019759168 -0.469194910533336 2.5 1.45750401006062 -0.354516657799352 2.5 1.4810630129045 -0.237597036610817 2.5 1.49525825852204 -0.119175250457566 2.5 1.5 0 1.49525825852204 0.119175250457572 1.4810630129045 0.237597036610822 1.45750401006062 0.354516657799357 1.42473019759167 0.469194910533341 1.38294878209231 0.580906761975962 1.3324239191237 0.688945933834467 1.27347504313705 0.792629367678929 1.20647484790615 0.891301543457566 1.13184693023735 0.984338623905564 1.05006311185414 1.07115239864512 0.96164045638833 1.15119400304086 0.867138000337273 1.22395738829874 0.767153218655133 1.28898252086949 0.662318247323868 1.34585829092882 0.553295886786012 1.39422511154608 0.440775411506881 1.43377719210864 0.325468212159477 1.46426447162858 0.208103297983602 1.48549419970875 0.0894226877547293 1.4973321551729 -0.0298232814976058 1.4997034946551 -0.148880698362093 1.49259322578364 -0.266996843516326 1.47604630196763 -0.383424948660713 1.45016733818706 -0.497428917828103 1.4151199495832 -0.608287981219492 1.37112571703105 -0.71530125214276 1.31846278623365 -0.817792158244002 1.25746410919541 -0.915112719015787 1.18851533919236 -1.00664764253856 1.11205239254793 -1.09181821555424 1.02855869262962 -1.17008596227782 0.93856211349084 -1.24095604881459 0.842631642481157 -1.30398041165937 0.741373782925085 -1.35876059049828 0.635428719612793 -1.40495024740309 0.525466271345738 -1.44225735649113 0.412181656126539 -1.47044605020695 0.296291095766931 -1.48933811055296 0.178527287702859 -1.49881409584095 0.0596347726453907 -1.49881409584095 -0.0596347726453859 -1.48933811055296 -0.178527287702854 -1.47044605020695 -0.296291095766926 -1.44225735649113 -0.412181656126535 -1.40495024740309 -0.525466271345733 -1.35876059049829 -0.635428719612788 -1.30398041165938 -0.741373782925081 -1.24095604881459 -0.842631642481153 -1.17008596227782 -0.938562113490836 -1.09181821555424 -1.02855869262962 -1.00664764253856 -1.11205239254792 -0.915112719015791 -1.18851533919236 -0.817792158244005 -1.25746410919541 -0.715301252142763 -1.31846278623365 -0.608287981219494 -1.37112571703105 -0.497428917828105 -1.4151199495832 -0.383424948660715 -1.45016733818705 -0.266996843516328 -1.47604630196763 -0.148880698362094 -1.49259322578364 -0.0298232814976069 -1.4997034946551 0.0894226877547286 -1.4973321551729 0.208103297983601 -1.48549419970875 0.325468212159477 -1.46426447162858 0.440775411506881 -1.43377719210864 0.553295886786012 -1.39422511154608 0.662318247323868 -1.34585829092882 0.767153218655134 -1.28898252086949 0.867138000337274 -1.22395738829874 0.961640456388332 -1.15119400304086 1.05006311185414 -1.07115239864512 1.13184693023735 -0.984338623905561 1.20647484790615 -0.891301543457563 1.27347504313705 -0.792629367678926 1.3324239191237 -0.688945933834463 1.38294878209231 -0.580906761975958 1.42473019759168 -0.469194910533336 1.45750401006062 -0.354516657799352 1.4810630129045 -0.237597036610817 1.49525825852204 -0.119175250457566 14 40 41 14 25 40 14 51 52 14 52 53 14 53 54 14 54 55 14 55 56 14 56 57 14 57 58 14 58 59 14 59 60 14 60 61 14 16 22 14 23 25 8 5 6 8 6 7 25 26 27 25 27 28 25 28 29 25 31 32 25 32 33 25 29 31 25 33 34 25 34 35 25 35 36 25 36 37 25 37 38 25 38 39 25 39 40 11 8 9 11 9 10 11 12 13 3 1 2 11 13 14 11 3 5 3 66 68 11 14 61 11 61 62 11 62 63 11 63 64 3 65 66 11 64 65 3 68 69 11 65 3 3 69 70 11 5 8 3 70 72 3 72 73 3 79 1 3 73 79 29 30 31 23 24 25 72 70 71 5 3 4 16 17 18 16 18 19 16 19 20 16 20 21 16 21 22 41 42 43 41 43 44 41 44 45 41 45 46 41 46 47 41 47 48 41 48 49 41 49 50 41 50 51 79 73 74 79 74 75 79 75 76 79 76 77 79 77 78 68 66 67 14 41 51 14 15 16 14 22 23 
79 77 1 2.35922392732846e-16
1.5 -3.67394039744206e-16 -0.5 1.49525825852204 0.119175250457572 -0.5 1.4810630129045 0.237597036610822 -0.5 1.45750401006062 0.354516657799357 -0.5 1.42473019759167 0.469194910533341 -0.5 1.38294878209231 0.580906761975962 -0.5 1.3324239191237 0.688945933834467 -0.5 1.27347504313705 0.792629367678929 -0.5 1.20647484790615 0.891301543457566 -0.5 1.13184693023735 0.984338623905564 -0.5 1.05006311185414 1.07115239864512 -0.5 0.96164045638833 1.15119400304086 -0.5 0.867138000337272 1.22395738829874 -0.5 0.767153218655133 1.28898252086949 -0.5 0.662318247323867 1.34585829092882 -0.5 0.553295886786011 1.39422511154608 -0.5 0.440775411506881 1.43377719210864 -0.5 0.325468212159477 1.46426447162858 -0.5 0.208103297983602 1.48549419970875 -0.5 0.0894226877547292 1.4973321551729 -0.5 -0.0298232814976059 1.4997034946551 -0.5 -0.148880698362093 1.49259322578364 -0.5 -0.266996843516326 1.47604630196763 -0.5 -0.383424948660713 1.45016733818706 -0.5 -0.497428917828103 1.4151199495832 -0.5 -0.608287981219492 1.37112571703105 -0.5 -0.71530125214276 1.31846278623365 -0.5 -0.817792158244002 1.25746410919541 -0.5 -0.915112719015787 1.18851533919236 -0.5 -1.00664764253856 1.11205239254793 -0.5 -1.09181821555424 1.02855869262962 -0.5 -1.17008596227782 0.93856211349084 -0.5 -1.24095604881459 0.842631642481157 -0.5 -1.30398041165937 0.741373782925085 -0.5 -1.35876059049828 0.635428719612793 -0.5 -1.40495024740309 0.525466271345738 -0.5 -1.44225735649113 0.41218165612654 -0.5 -1.47044605020695 0.296291095766931 -0.5 -1.48933811055296 0.178527287702859 -0.5 -1.49881409584095 0.0596347726453908 -0.5 -1.49881409584095 -0.0596347726453858 -0.5 -1.48933811055296 -0.178527287702854 -0.5 -1.47044605020695 -0.296291095766926 -0.5 -1.44225735649113 -0.412181656126535 -0.5 -1.40495024740309 -0.525466271345733 -0.5 -1.35876059049829 -0.635428719612788 -0.5 -1.30398041165938 -0.741373782925081 -0.5 -1.24095604881459 -0.842631642481153 -0.5 -1.17008596227782 -0.938562113490836 -0.5 -1.09181821555424 -1.02855869262962 -0.5 -1.00664764253856 -1.11205239254792 -0.5 -0.915112719015791 -1.18851533919236 -0.5 -0.817792158244005 -1.25746410919541 -0.5 -0.715301252142763 -1.31846278623365 -0.5 -0.608287981219494 -1.37112571703105 -0.5 -0.497428917828105 -1.4151199495832 -0.5 -0.383424948660715 -1.45016733818705 -0.5 -0.266996843516328 -1.47604630196763 -0.5 -0.148880698362094 -1.49259322578364 -0.5 -0.029823281497607 -1.4997034946551 -0.5 0.0894226877547285 -1.4973321551729 -0.5 0.208103297983601 -1.48549419970875 -0.5 0.325468212159477 -1.46426447162858 -0.5 0.440775411506881 -1.43377719210864 -0.5 0.553295886786012 -1.39422511154608 -0.5 0.662318247323868 -1.34585829092882 -0.5 0.767153218655134 -1.28898252086949 -0.5 0.867138000337274 -1.22395738829874 -0.5 0.961640456388332 -1.15119400304086 -0.5 1.05006311185414 -1.07115239864512 -0.5 1.13184693023735 -0.984338623905561 -0.5 1.20647484790615 -0.891301543457563 -0.5 1.27347504313705 -0.792629367678926 -0.5 1.3324239191237 -0.688945933834463 -0.5 1.38294878209231 -0.580906761975958 -0.5 1.42473019759168 -0.469194910533336 -0.5 1.45750401006062 -0.354516657799352 -0.5 1.4810630129045 -0.237597036610817 -0.5 1.49525825852204 -0.119175250457566 -0.5 1.5 0 1.49525825852204 0.119175250457572 1.4810630129045 0.237597036610822 1.45750401006062 0.354516657799357 1.42473019759167 0.469194910533341 1.38294878209231 0.580906761975962 1.3324239191237 0.688945933834467 1.27347504313705 0.792629367678929 1.20647484790615 0.891301543457566 1.13184693023735 0.984338623905564 1.05006311185414 1.07115239864512 0.96164045638833 1.15119400304086 0.867138000337273 1.22395738829874 0.767153218655133 1.28898252086949 0.662318247323868 1.34585829092882 0.553295886786012 1.39422511154608 0.440775411506881 1.43377719210864 0.325468212159477 1.46426447162858 0.208103297983602 1.48549419970875 0.0894226877547293 1.4973321551729 -0.0298232814976058 1.4997034946551 -0.148880698362093 1.49259322578364 -0.266996843516326 1.47604630196763 -0.383424948660713 1.45016733818706 -0.497428917828103 1.4151199495832 -0.608287981219492 1.37112571703105 -0.71530125214276 1.31846278623365 -0.817792158244002 1.25746410919541 -0.915112719015787 1.18851533919236 -1.00664764253856 1.11205239254793 -1.09181821555424 1.02855869262962 -1.17008596227782 0.93856211349084 -1.24095604881459 0.842631642481157 -1.30398041165937 0.741373782925085 -1.35876059049828 0.635428719612793 -1.40495024740309 0.525466271345738 -1.44225735649113 0.412181656126539 -1.47044605020695 0.296291095766931 -1.48933811055296 0.178527287702859 -1.49881409584095 0.0596347726453907 -1.49881409584095 -0.0596347726453859 -1.48933811055296 -0.178527287702854 -1.47044605020695 -0.296291095766926 -1.44225735649113 -0.412181656126535 -1.40495024740309 -0.525466271345733 -1.35876059049829 -0.635428719612788 -1.30398041165938 -0.741373782925081 -1.24095604881459 -0.842631642481153 -1.17008596227782 -0.938562113490836 -1.09181821555424 -1.02855869262962 -1.00664764253856 -1.11205239254792 -0.915112719015791 -1.18851533919236 -0.817792158244005 -1.25746410919541 -0.715301252142763 -1.31846278623365 -0.608287981219494 -1.37112571703105 -0.497428917828105 -1.4151199495832 -0.383424948660715 -1.45016733818705 -0.266996843516328 -1.47604630196763 -0.148880698362094 -1.49259322578364 -0.0298232814976069 -1.4997034946551 0.0894226877547286 -1.4973321551729 0.208103297983601 -1.48549419970875 0.325468212159477 -1.46426447162858 0.440775411506881 -1.43377719210864 0.553295886786012 -1.39422511154608 0.662318247323868 -1.34585829092882 0.767153218655134 -1.28898252086949 0.867138000337274 -1.22395738829874 0.961640456388332 -1.15119400304086 1.05006311185414 -1.07115239864512 1.13184693023735 -0.984338623905561 1.20647484790615 -0.891301543457563 1.27347504313705 -0.792629367678926 1.3324239191237 -0.688945933834463 1.38294878209231 -0.580906761975958 1.42473019759168 -0.469194910533336 1.45750401006062 -0.354516657799352 1.4810630129045 -0.237597036610817 1.49525825852204 -0.119175250457566 14 40 41 14 25 40 14 51 52 14 52 53 14 53 54 14 54 55 14 55 56 14 56 57 14 57 58 14 58 59 14 59 60 14 60 61 14 16 22 14 23 25 8 5 6 8 6 7 25 26 27 25 27 28 25 28 29 25 31 32 25 32 33 25 29 31 25 33 34 25 34 35 25 35 36 25 36 37 25 37 38 25 38 39 25 39 40 11 8 9 11 9 10 11 12 13 3 1 2 11 13 14 11 3 5 3 66 68 11 14 61 11 61 62 11 62 63 11 63 64 3 65 66 11 64 65 3 68 69 11 65 3 3 69 70 11 5 8 3 70 72 3 72 73 3 79 1 3 73 79 29 30 31 23 24 25 72 70 71 5 3 4 16 17 18 16 18 19 16 19 20 16 20 21 16 21 22 41 42 43 41 43 44 41 44 45 41 45 46 41 46 47 41 47 48 41 48 49 41 49 50 41 50 51 79 73 74 79 74 75 79 75 76 79 76 77 79 77 78 68 66 67 14 41 51 14 15 16 14 22 23 

TShapes 47
Ve
1e-07
-3 -3 3
0 0

0101101
*
Ve
1e-07
-3 -3 -3
0 0

0101101
*
Ed
 1e-07 1 1 0
1  1 0 0 6
2  1 1 0 0 6
2  2 2 0 0 6
6  1 1 0
6  2 2 0
0

0101000
-47 0 +46 0 *
Ve
1e-07
-3 3 3
0 0

0101101
*
Ed
 1e-07 1 1 0
1  2 0 0 6
2  3 1 0 0 6
2  4 3 0 0 6
6  3 1 0
6  4 3 0
0

0101000
-44 0 +47 0 *
Ve
1e-07
-3 3 -3
0 0

0101101
*
Ed
 1e-07 1 1 0
1  3 0 0 6
2  5 1 0 0 6
2  6 4 0 0 6
6  5 1 0
6  6 4 0
0

0101000
-44 0 +42 0 *
Ed
 1e-07 1 1 0
1  4 0 0 6
2  7 1 0 0 6
2  8 5 0 0 6
6  7 1 0
6  8 5 0
0

0101000
-42 0 +46 0 *
Wi

0101100
-45 0 -43 0 +41 0 +40 0 *
Fa
0  1e-07 1 0
2  1
0101000
+39 0 *
Ve
1e-07
3 -3 -3
0 0

0101101
*
Ed
 1e-07 1 1 0
1  5 0 0 6
2  9 2 0 0 6
2  10 5 0 0 6
6  9 2 0
6  10 5 0
0

0101000
-37 0 +46 0 *
Ve
1e-07
3 -3 3
0 0

0101101
*
Ed
 1e-07 1 1 0
1  6 0 0 6
2  11 6 0 0 6
2  12 2 0 0 6
6  11 2 0
6  12 6 0
0

0101000
-35 0 +37 0 *
Ed
 1e-07 1 1 0
1  7 0 0 6
2  13 2 0 0 6
2  14 3 0 0 6
6  13 2 0
6  14 3 0
0

0101000
-35 0 +47 0 *
Wi

0101100
-36 0 -34 0 +33 0 +45 0 *
Fa
0  1e-07 2 0
2  2
0101000
+32 0 *
Ve
1e-07
3 3 3
0 0

0101101
*
Ed
 1e-07 1 1 0
1  8 0 0 6
2  15 4 0 0 6
2  16 3 0 0 6
6  15 3 0
6  16 4 0
0

0101000
-30 0 +44 0 *
Ed
 1e-07 1 1 0
1  9 0 0 6
2  17 6 0 0 6
2  18 3 0 0 6
6  17 3 0
6  18 6 0
0

0101000
-30 0 +35 0 *
Wi

0101100
-43 0 -29 0 +28 0 +33 0 *
Fa
0  1e-07 3 0
2  3
0101000
+27 0 *
Ve
1e-07
3 3 -3
0 0

0101101
*
Ed
 1e-07 1 1 0
1  10 0 0 6
2  19 4 0 0 6
2  20 5 0 0 6
6  19 4 0
6  20 5 0
0

0101000
-25 0 +42 0 *
Ed
 1e-07 1 1 0
1  11 0 0 6
2  21 6 0 0 6
2  22 4 0 0 6
6  21 4 0
6  22 6 0
0

0101000
-30 0 +25 0 *
Wi

0101100
-24 0 -23 0 +29 0 +41 0 *
Fa
0  1e-07 4 0
2  4
0101000
+22 0 *
Ed
 1e-07 1 1 0
1  12 0 0 6
2  23 6 0 0 6
2  24 5 0 0 6
6  23 5 0
6  24 6 0
0

0101000
-25 0 +37 0 *
Wi

0101100
-40 0 -24 0 +20 0 +36 0 *
Fa
0  1e-07 5 0
2  5
0101000
+19 0 *
Wi

0101100
-34 0 -28 0 +23 0 +20 0 *
Fa
0  1e-07 6 0
2  6
0101000
+17 0 *
Sh

0101100
-38 0 -31 0 +26 0 +21 0 -18 0 +16 0 *
Ve
1e-07
1.5 -3.67394039744206e-16 2.5
0 0

0101101
*
Ed
 1e-07 1 1 0
1  13 0 0 6.28318530717959
2  25 7 0 0 6.28318530717959
2  26 8 0 0 6.28318530717959
6  25 7 0
6  26 8 0
0

0101000
+14 0 -14 0 *
Ve
1e-07
1.5 -3.67394039744206e-16 -0.5
0 0

0101101
*
Ed
 1e-07 1 1 0
1  14 0 0 3
3  27 28CN 7 0 0 3
7  27 28 7 0
0

0101000
-14 0 +12 0 *
Ed
 1e-07 1 1 0
1  15 0 0 6.28318530717959
2  29 7 0 0 6.28318530717959
2  30 9 0 0 6.28318530717959
6  29 7 0
6  30 9 0
0

0101000
+12 0 -12 0 *
Wi

0101100
-13 0 +11 0 +10 0 -11 0 *
Fa
0  1e-07 7 0
2  7
0101000
+9 0 *
Wi

0101100
+13 0 *
Fa
0  1e-07 8 0
2  8
0101000
+7 0 *
Wi

0101100
-10 0 *
Fa
0  1e-07 9 0
2  9
0101000
-5 0 *
Sh

0101100
-8 0 -6 0 +4 0 *
So

0100000
+15 0 +3 0 *
Co

1100000
+2 0 *

+1 0 